# xmcd
#
# Track frame offsets:
#	150
#	18995
#	36605
#	50612
#	64750
#	84430
#	100115
#	113447
#	131840
#	149077
#	169565
#	186555
#	205155
#
# Disc length: 2904 seconds
#
# Revision: 0
# Processed by: cddbd v1.4PL0 Copyright (c) Steve Scherf et al.
# Submitted via: EasyCDDAExtractor 4.5.0.2
#
DISCID=bc0b560d
DTITLE=Steve Wariner - Faith In You
DYEAR=2000
DGENRE=country
TTITLE0=High Time
TTITLE1=Faith In You
TTITLE2=I Just Do
TTITLE3=Katie Wants A Fast One
TTITLE4=Turn In The Road
TTITLE5=Make It Look Easy
TTITLE6=It Wouldn't Be Love
TTITLE7=Waiting In The Wings
TTITLE8=Been There
TTITLE9=Longer Letter Later
TTITLE10=Blinded
TTITLE11=I Wish I Were A Train
TTITLE12=Bloodlines
EXTD=
EXTT0=
EXTT1=
EXTT2=
EXTT3=
EXTT4=
EXTT5=
EXTT6=
EXTT7=
EXTT8=
EXTT9=
EXTT10=
EXTT11=
EXTT12=
PLAYORDER=
